<?xml version="1.0" encoding="utf-8"?>
<svg width="19px" height="19px" viewBox="0 0 19 19" version="1.1" xmlns:xlink="http://www.w3.org/1999/xlink" xmlns="http://www.w3.org/2000/svg">
  <desc>Created with Lunacy</desc>
  <g id="点赞备份" transform="translate(0.333313 0.3333282)">
    <path d="M5.8514 0L5.94038 0Q6.05851 0 6.17406 0.0245429Q6.28961 0.0490858 6.39754 0.0971005Q6.50547 0.145115 6.60107 0.214506Q6.69666 0.283897 6.77576 0.371636Q6.85486 0.459375 6.914 0.561633Q6.97314 0.66389 7.00974 0.776204Q7.04634 0.888517 7.05882 1.00598Q7.07129 1.12345 7.05908 1.24095L6.82444 3.49937L11.6184 3.49937Q11.7191 3.49937 11.8172 3.52242Q11.9153 3.54547 12.0055 3.59034Q12.0957 3.63521 12.1732 3.69953Q12.2507 3.76385 12.3115 3.8442Q12.3723 3.92455 12.413 4.01667Q12.4538 4.10879 12.4724 4.2078Q12.491 4.3068 12.4865 4.40744Q12.482 4.50808 12.4546 4.60501L10.3994 11.8668Q10.3802 11.9346 10.3503 11.9985Q10.3204 12.0623 10.2807 12.1205Q10.2409 12.1787 10.1923 12.2297Q10.1436 12.2807 10.0874 12.3233Q10.0312 12.3658 9.96885 12.3987Q9.90651 12.4316 9.83968 12.454Q9.77285 12.4764 9.70329 12.4878Q9.63372 12.4992 9.56323 12.4992L2.70589 12.4992L2.70589 7.25802Q2.70589 7.21294 2.6971 7.16874Q2.68831 7.12453 2.67106 7.08289Q2.65381 7.04125 2.62877 7.00377Q2.60373 6.9663 2.57186 6.93443Q2.53999 6.90256 2.50251 6.87752Q2.46504 6.85248 2.42339 6.83523Q2.38175 6.81798 2.33755 6.80919Q2.29334 6.80039 2.24827 6.80039L2.24627 6.80039Q2.2012 6.80039 2.15699 6.80919Q2.11279 6.81798 2.07115 6.83523Q2.0295 6.85248 1.99203 6.87752Q1.95455 6.90256 1.92268 6.93443Q1.89081 6.9663 1.86577 7.00377Q1.84073 7.04125 1.82348 7.08289Q1.80623 7.12453 1.79744 7.16874Q1.78865 7.21294 1.78865 7.25802L1.78865 12.4992L0.874337 12.4992Q0.788788 12.4992 0.704881 12.4825Q0.620974 12.4658 0.541931 12.4331Q0.462889 12.4003 0.391744 12.3528Q0.3206 12.3053 0.260085 12.2449Q0.199571 12.1844 0.15201 12.1133Q0.104449 12.0422 0.0716677 11.9631Q0.0388862 11.8841 0.0221428 11.8002Q0.00539942 11.7163 0.00533694 11.6308L3.33837e-05 4.36901Q-9.29189e-05 4.19607 0.0659998 4.03626Q0.132093 3.87645 0.254333 3.75412Q0.376574 3.63179 0.536335 3.56558Q0.696096 3.49937 0.869033 3.49937L3.23745 3.49937L4.24535 1.07211Q4.29451 0.953725 4.36049 0.843832Q4.42647 0.733938 4.50786 0.634907Q4.58924 0.535875 4.68426 0.449846Q4.77928 0.363818 4.88589 0.292651Q4.9925 0.221484 5.10839 0.166718Q5.22429 0.111952 5.34695 0.0747702Q5.46962 0.0375882 5.59642 0.0187941Q5.72321 0 5.8514 0ZM1.78865 12.4992L1.78865 12.5L2.70589 12.5L2.70589 12.4992L1.78865 12.4992Z" transform="translate(3 2)" id="形状结合" fill="#D8D8D8" fill-rule="evenodd" stroke="none" />
  </g>
</svg>